HIERARCHY
ROOT Hips
{
	OFFSET 0.0000 0.0000 0.0000
	CHANNELS 6 Xposition Yposition Zposition Zrotation Xrotation Yrotation
	JOINT Ab
	{
		OFFSET -0.0000 8.0846 -0.0000
		CHANNELS 3 Zrotation Xrotation Yrotation
		JOINT Chest
		{
			OFFSET -0.0000 25.0068 -0.0000
			CHANNELS 3 Zrotation Xrotation Yrotation
			JOINT Neck
			{
				OFFSET -0.0000 25.0068 0.0000
				CHANNELS 3 Zrotation Xrotation Yrotation
				JOINT Head
				{
					OFFSET -0.0000 10.7556 0.0000
					CHANNELS 3 Zrotation Xrotation Yrotation
					End Site
					{
						OFFSET -0.0000 16.6222 0.0000
					}
				}
			}
			JOINT LeftCollar
			{
				OFFSET -0.0000 25.0068 0.0000
				CHANNELS 3 Zrotation Xrotation Yrotation
				JOINT LeftShoulder
				{
					OFFSET 19.5556 -0.0000 0.0000
					CHANNELS 3 Zrotation Xrotation Yrotation
					JOINT LeftElbow
					{
						OFFSET 27.1828 0.0000 0.0000
						CHANNELS 3 Zrotation Xrotation Yrotation
						JOINT LeftWrist
						{
							OFFSET 23.3157 0.0000 0.0000
							CHANNELS 3 Zrotation Xrotation Yrotation
							End Site
							{
								OFFSET 0.0000 -14.6667 0.0000
							}
						}
					}
				}
			}
			JOINT RightCollar
			{
				OFFSET -0.0000 25.0068 0.0000
				CHANNELS 3 Zrotation Xrotation Yrotation
				JOINT RightShoulder
				{
					OFFSET -19.5556 0.0000 0.0000
					CHANNELS 3 Zrotation Xrotation Yrotation
					JOINT RightElbow
					{
						OFFSET -27.1828 0.0000 0.0000
						CHANNELS 3 Zrotation Xrotation Yrotation
						JOINT RightWrist
						{
							OFFSET -23.3157 0.0000 0.0000
							CHANNELS 3 Zrotation Xrotation Yrotation
							End Site
							{
								OFFSET -0.0000 -14.6667 0.0000
							}
						}
					}
				}
			}
		}
	}
	JOINT LeftHip
	{
		OFFSET 11.7333 0.0000 0.0000
		CHANNELS 3 Zrotation Xrotation Yrotation
		JOINT LeftKnee
		{
			OFFSET -0.0000 -40.8688 0.0000
			CHANNELS 3 Zrotation Xrotation Yrotation
			JOINT LeftAnkle
			{
				OFFSET -0.0000 -44.4337 0.0000
				CHANNELS 3 Zrotation Xrotation Yrotation
				End Site
				{
					OFFSET -0.0000 -4.8889 16.6222
				}
			}
		}
	}
	JOINT RightHip
	{
		OFFSET -11.7333 0.0000 0.0000
		CHANNELS 3 Zrotation Xrotation Yrotation
		JOINT RightKnee
		{
			OFFSET -0.0000 -40.8688 0.0000
			CHANNELS 3 Zrotation Xrotation Yrotation
			JOINT RightAnkle
			{
				OFFSET -0.0000 -44.4337 0.0000
				CHANNELS 3 Zrotation Xrotation Yrotation
				End Site
				{
					OFFSET -0.0000 -4.8889 16.6222
				}
			}
		}
	}
}
MOTION
Frames: 19
Frame Time: 0.010000
-5.0503 88.6947 190.3691 2.4579 0.0242 177.4682 1.3139 359.2239 358.1441 359.6150 11.1921 358.1736 0.4448 345.7884 0.9282 2.9169 12.3825 0.5542 338.5611 358.5923 7.5024 301.5314 31.2177 355.0522 14.9281 354.7741 321.6227 83.3614 2.0340 341.3908 22.0305 359.1174 355.4628 61.7936 43.6681 5.8874 337.4683 354.1896 28.2403 275.3945 353.0534 18.2391 2.4674 357.7955 357.9908 359.4651 11.0501 356.1429 357.8030 351.5400 22.0272 1.2553 351.6039 0.3016 359.0094 19.5362 8.6939 356.4418 344.8457 336.7876 
-5.0547 88.6962 190.3553 2.4595 0.0356 177.4637 1.3018 359.2538 358.1516 359.6100 11.1700 358.1806 0.3925 345.7702 0.9156 2.9539 12.4377 0.5389 338.5588 358.5769 7.5450 301.5326 31.2712 355.0482 15.0272 354.7390 321.6790 83.2582 1.9866 341.4083 22.0320 359.1273 355.4992 61.8193 43.7109 5.8530 337.3963 354.2054 28.2572 275.3799 353.1202 18.2250 2.4654 357.8972 358.0827 359.5112 10.8869 355.9740 357.7754 351.5818 22.0572 1.2522 351.6317 0.3134 359.0224 19.5207 8.6133 356.4695 344.8424 336.8507 
-5.0626 88.6968 190.3478 2.4539 0.0293 177.4734 1.2911 359.2686 358.1500 359.6000 11.1562 358.1815 0.3519 345.7287 0.8846 2.9800 12.4985 0.5088 338.5731 358.5920 7.4971 301.4837 31.0522 355.1141 14.9030 354.8099 321.6998 83.3397 1.9247 341.2508 22.0416 359.1024 355.4886 61.7908 43.7720 5.8714 337.3425 354.2030 28.2523 275.3648 353.1067 18.1532 2.4564 357.8111 357.9390 359.4518 11.0542 356.1718 357.8170 351.5051 22.0417 1.2346 351.6335 0.3348 359.0390 19.5175 8.5712 356.4728 344.8379 336.8627 
-5.0696 88.6975 190.3399 2.4523 0.0158 177.4820 1.2753 359.2743 358.1508 359.5999 11.1427 358.1828 0.2868 345.6924 0.8574 3.0281 12.5631 0.4815 338.5734 358.5745 7.5398 301.4762 31.2015 355.1060 15.0566 354.7305 321.7504 83.2474 1.9159 341.3443 22.0515 359.1242 355.5063 61.7565 43.7490 5.8833 337.4015 354.2414 28.2477 275.3832 353.0899 18.1477 2.4622 357.7913 357.8887 359.4416 11.0655 356.0978 357.8236 351.4891 22.1152 1.2259 351.6257 0.3402 359.0381 19.5168 8.6010 356.4709 344.8119 336.8423 
-5.0800 88.6988 190.3258 2.4413 0.0153 177.4877 1.2419 359.2736 358.1598 359.6120 11.1590 358.1906 0.2362 345.6317 0.8234 3.0525 12.6558 0.4507 338.5737 358.5712 7.5464 301.4705 31.1850 355.1157 15.0531 354.7604 321.7939 83.2974 1.8867 341.3543 22.0466 359.1364 355.5218 61.7357 43.7526 5.9087 337.3666 354.2353 28.2639 275.4207 353.0958 18.1412 2.4418 357.7879 357.8985 359.4251 11.0935 356.1500 357.8464 351.4776 22.0890 1.1942 351.6459 0.3592 359.0675 19.4985 8.5879 356.4523 344.8043 336.8354 
-5.0931 88.6988 190.3206 2.4435 359.9912 177.5154 1.2287 359.2631 358.1608 359.6224 11.1683 358.1909 0.1128 345.5410 0.7483 3.1669 12.7822 0.3694 338.5691 358.5883 7.5403 301.4796 31.1776 355.1040 14.9704 354.8007 321.8617 83.6543 1.8060 341.4679 22.0348 359.1206 355.5082 61.7145 43.7718 5.9439 337.3493 354.2177 28.2804 275.3431 353.1045 18.1639 2.4397 357.7295 357.8481 359.4363 11.1433 356.0801 357.8370 351.4464 22.1282 1.1753 351.6347 0.3331 359.0872 19.4854 8.5042 356.4202 344.8085 336.9109 
-5.1085 88.6991 190.3082 2.4359 359.9983 177.5295 1.2078 359.2812 358.1688 359.6221 11.1760 358.1991 0.0447 345.4794 0.6964 3.2192 12.8689 0.3220 338.5728 358.5617 7.5667 301.4731 31.2788 355.0871 15.1461 354.7173 321.9175 83.2756 1.7882 341.4067 22.0278 359.1243 355.5169 61.7022 43.7954 5.9576 337.3436 354.2317 28.2749 275.4475 353.1101 18.1448 2.4300 357.7278 357.8335 359.4141 11.1704 356.0654 357.8379 351.4235 22.1495 1.1400 351.6656 0.3510 359.1146 19.4617 8.5126 356.4677 344.7992 336.9043 
-5.1276 88.7007 190.2916 2.4221 0.0104 177.5487 1.1888 359.3060 358.1725 359.6138 11.1680 358.2029 359.9812 345.4353 0.6562 3.2703 12.9511 0.2817 338.5660 358.5696 7.5675 301.4787 31.3283 355.1078 15.0910 354.7801 322.0057 83.6960 1.6588 341.6126 22.0299 359.1279 355.5172 61.6675 43.8200 5.9781 337.3723 354.2435 28.2384 275.3929 352.9548 18.2255 2.4085 357.7331 357.8901 359.4171 11.1975 355.9598 357.8843 351.4191 22.1845 1.0887 351.7071 0.3727 359.1618 19.4298 8.4850 356.6688 344.7416 336.9511 
-5.1481 88.7030 190.2807 2.4107 0.0028 177.5752 1.1841 359.3228 358.1599 359.5915 11.1391 358.1934 359.8908 345.4691 0.5798 3.3442 13.0000 0.2029 338.5654 358.5620 7.5729 301.4727 31.3591 355.1405 15.1220 354.7523 322.0301 83.7214 1.6201 341.6421 22.0351 359.1407 355.5290 61.6308 43.8403 6.0044 337.3870 354.2405 28.2325 275.4639 352.9326 18.2627 2.3899 357.7015 357.9040 359.4062 11.2434 355.9427 357.8864 351.3986 22.1597 1.0390 351.7304 0.3955 359.2100 19.3929 8.4085 356.4389 344.7744 336.9352 
-5.1776 88.7039 190.2697 2.3856 359.9939 177.6023 1.1735 359.3306 358.1524 359.5617 11.1320 358.1880 359.8181 345.4221 0.5458 3.4104 13.0856 0.1683 338.5622 358.5501 7.6057 301.4784 31.4396 355.1377 15.1960 354.7316 322.0828 83.6605 1.5647 341.7078 22.0310 359.1358 355.5512 61.5990 43.8654 6.0287 337.3783 354.2379 28.2490 275.4778 352.8990 18.2853 2.3514 357.6686 357.8835 359.3919 11.2901 355.9298 357.9136 351.3792 22.1678 0.9585 351.7562 0.4501 359.2899 19.3458 8.3172 356.5249 344.7219 336.9434 
-5.2068 88.7074 190.2548 2.3654 359.9938 177.6333 1.1552 359.3429 358.1479 359.5460 11.1256 358.1858 359.7041 345.3814 0.4832 3.5244 13.1751 0.1084 338.5529 358.5526 7.6383 301.4986 31.5616 355.1152 15.3121 354.6951 322.1773 83.4273 1.5372 341.7343 22.0238 359.1326 355.5673 61.5568 43.8983 6.0560 337.4070 354.2351 28.2521 275.5068 352.8957 18.3170 2.3233 357.6736 357.9091 359.3794 11.2870 355.8591 357.9301 351.3779 22.1907 0.8905 351.7932 0.4976 359.3476 19.3059 8.2418 356.6760 344.6765 337.0266 
-5.2406 88.7103 190.2329 2.3461 0.0019 177.6741 1.1421 359.3537 358.1449 359.5257 11.1286 358.1846 359.5729 345.3268 0.4057 3.6603 13.2914 0.0251 338.5408 358.5560 7.6778 301.5389 31.7872 355.0729 15.5324 354.6078 322.2583 83.0356 1.5592 341.7982 22.0157 359.1339 355.5642 61.5079 43.9328 6.1051 337.3682 354.2200 28.2268 275.6467 352.8136 18.1122 2.2925 357.7254 357.9665 359.3792 11.2117 355.7641 357.9458 351.4072 22.1822 0.8185 351.8578 0.5777 359.4172 19.2387 8.1456 356.4507 344.7085 337.0136 
-5.2798 88.7129 190.2180 2.3213 359.9873 177.7291 1.1267 359.3568 358.1326 359.5082 11.1076 358.1746 359.4389 345.2726 0.3263 3.7926 13.4163 359.9381 338.5274 358.5515 7.6894 301.5513 31.9365 355.0745 15.6427 354.5883 322.3384 83.0091 1.4981 341.9204 22.0101 359.1299 355.5598 61.4587 43.9860 6.1371 337.3669 354.2183 28.2363 275.7164 352.8179 18.1299 2.2548 357.6843 357.9240 359.3528 11.2545 355.7704 357.9900 351.3978 22.1709 0.7388 351.8935 0.6505 359.4813 19.1803 8.0815 356.4315 344.6836 336.9893 
-5.3194 88.7174 190.2035 2.3012 359.9670 177.7712 1.1022 359.3575 358.1367 359.5048 11.0859 358.1788 359.3247 345.2205 0.2571 3.9131 13.5372 359.8687 338.5096 358.5547 7.6913 301.5437 31.9437 355.0895 15.6723 354.6061 322.3704 82.9840 1.4643 341.9272 22.0058 359.1475 355.5633 61.3794 44.0100 6.1947 337.3174 354.2087 28.2207 275.9275 352.7588 17.7817 2.2228 357.6376 357.9091 359.3271 11.3019 355.7770 358.0229 351.3906 22.1459 0.6762 351.9179 0.7306 359.5305 19.1249 7.9866 356.4291 344.6647 336.9931 
-5.3658 88.7212 190.1830 2.2784 359.9491 177.8151 1.0694 359.3464 358.1494 359.5061 11.0899 358.1919 359.1631 345.1097 0.1477 4.0750 13.7440 359.7471 338.5023 358.5433 7.6584 301.5162 31.8820 355.1310 15.6464 354.6435 322.3615 83.0470 1.4519 341.8837 22.0104 359.1284 355.5171 61.2713 43.9622 6.2866 337.2303 354.1839 28.2497 276.0962 352.7351 17.3878 2.1794 357.5630 357.8985 359.3092 11.4163 355.7686 358.1127 351.3455 22.1257 0.6065 351.9520 0.8125 359.5805 19.0686 7.9179 356.3607 344.7085 337.0529 
-5.4186 88.7244 190.1622 2.2495 359.9280 177.8682 1.0508 359.3372 358.1410 359.4853 11.0743 358.1854 359.0385 345.0592 0.0591 4.2203 13.8778 359.6574 338.5038 358.5528 7.6176 301.4744 31.7823 355.1810 15.5650 354.6904 322.3773 83.1055 1.4048 341.7844 22.0160 359.1077 355.4935 61.1873 44.0147 6.3377 337.3745 354.2459 28.2772 275.8906 352.6944 17.9398 2.1229 357.5191 357.8688 359.2941 11.4604 355.7677 358.2411 351.3394 22.1323 0.5288 351.9760 0.8674 359.5824 19.0259 8.1232 356.2970 344.8173 336.9954 
-5.4748 88.7277 190.1459 2.2262 359.8954 177.9280 1.0283 359.3318 358.1238 359.4819 11.0324 358.1683 3.1096 346.5842 0.3621 355.3020 10.5890 0.3694 338.4989 358.5445 7.5861 301.4106 31.6278 355.2456 15.4760 354.7244 322.3505 83.1648 1.4166 341.6653 22.0200 359.1144 355.4948 61.0776 44.0316 6.3966 337.4730 354.2573 28.3436 275.9556 352.8275 18.1058 2.0734 357.4994 357.8872 359.2878 11.4291 355.6999 358.2861 351.3565 22.1313 0.4607 351.9826 0.9199 359.6019 18.9909 8.1289 356.3607 344.8034 336.9621 
-5.5335 88.7314 190.1323 2.2063 359.8505 177.9742 0.9911 359.3229 358.1114 359.5017 10.9834 358.1542 7.0908 348.0981 0.5568 346.7352 7.3774 0.6168 338.4888 358.5344 7.5992 301.3559 31.5945 355.2855 15.4400 354.7325 322.3678 83.2214 1.4117 341.6034 22.0065 359.1299 355.5133 60.9841 44.1002 6.4706 337.4473 354.2231 28.4067 276.1346 353.0609 18.0530 2.0290 357.4337 357.8046 359.2531 11.4680 355.7212 358.3255 351.3292 22.1519 0.4010 351.9652 0.9789 359.6223 18.9672 8.0481 356.4190 344.7695 336.9695 
-5.5999 88.7356 190.1173 2.1865 359.8015 178.0131 0.9496 359.2978 358.1121 359.5285 10.9652 358.1526 7.0698 348.0195 0.5253 346.8665 7.5993 0.6525 338.4804 358.5315 7.6053 301.2940 31.5608 355.3093 15.4076 354.7335 322.3952 83.2665 1.3896 341.5408 21.9881 359.1264 355.5216 60.8821 44.1661 6.5443 337.4638 354.2094 28.4290 276.0512 353.0738 18.0240 1.9758 357.3408 357.6828 359.2127 11.5536 355.8095 358.3537 351.2767 22.1663 0.3337 351.9407 1.0628 359.6490 18.9561 8.0054 356.4484 344.7502 336.9267 
